<mxfile host="app.diagrams.net" modified="2022-06-14T10:09:22.117Z" agent="5.0 (Macintosh; Intel Mac OS X 10_15_7) AppleWebKit/537.36 (KHTML, like Gecko) Chrome/102.0.0.0 Safari/537.36" etag="lFNr5h8j21Ej54j9mzHD" version="20.0.1" type="github" pages="2">
  <diagram id="ANraXPpUiLoyb3upvbDP" name="Page-1">
    <mxGraphModel dx="1186" dy="764" grid="1" gridSize="10" guides="1" tooltips="1" connect="1" arrows="1" fold="1" page="1" pageScale="1" pageWidth="3300" pageHeight="4681" math="0" shadow="0">
      <root>
        <mxCell id="0" />
        <mxCell id="1" parent="0" />
        <mxCell id="72opb8WJkL6b5-LoPTCA-8" style="edgeStyle=orthogonalEdgeStyle;rounded=0;orthogonalLoop=1;jettySize=auto;html=1;exitX=1;exitY=0.5;exitDx=0;exitDy=0;entryX=0;entryY=0.5;entryDx=0;entryDy=0;" parent="1" source="72opb8WJkL6b5-LoPTCA-4" target="72opb8WJkL6b5-LoPTCA-5" edge="1">
          <mxGeometry relative="1" as="geometry" />
        </mxCell>
        <mxCell id="72opb8WJkL6b5-LoPTCA-4" value="AWEUIKit" style="rounded=0;whiteSpace=wrap;html=1;fillColor=#dae8fc;strokeColor=#6c8ebf;" parent="1" vertex="1">
          <mxGeometry x="210" y="240" width="270" height="140" as="geometry" />
        </mxCell>
        <mxCell id="72opb8WJkL6b5-LoPTCA-5" value="AWELocalizations" style="rounded=0;whiteSpace=wrap;html=1;fillColor=#d5e8d4;strokeColor=#82b366;" parent="1" vertex="1">
          <mxGeometry x="780" y="240" width="260" height="140" as="geometry" />
        </mxCell>
        <mxCell id="72opb8WJkL6b5-LoPTCA-9" value="依赖&lt;span style=&quot;background-color: initial;&quot;&gt;ALPLocalizationsManager&lt;/span&gt;&lt;br&gt;&lt;span class=&quot;lark-record-clipboard&quot; data-lark-record-format=&quot;docx/text&quot; data-lark-record-data=&quot;{&amp;quot;rootId&amp;quot;:&amp;quot;doxcnekMiB30CGOWGuodaVgddFA&amp;quot;,&amp;quot;text&amp;quot;:{&amp;quot;initialAttributedTexts&amp;quot;:{&amp;quot;text&amp;quot;:{&amp;quot;0&amp;quot;:&amp;quot;ALPLocalizationsManager&amp;quot;},&amp;quot;attribs&amp;quot;:{&amp;quot;0&amp;quot;:&amp;quot;*0+n&amp;quot;}},&amp;quot;apool&amp;quot;:{&amp;quot;numToAttrib&amp;quot;:{&amp;quot;0&amp;quot;:[&amp;quot;author&amp;quot;,&amp;quot;7094434795863244802&amp;quot;]},&amp;quot;nextNum&amp;quot;:1}},&amp;quot;type&amp;quot;:&amp;quot;text&amp;quot;,&amp;quot;referenceRecordMap&amp;quot;:{},&amp;quot;extra&amp;quot;:{&amp;quot;mention_page_title&amp;quot;:{},&amp;quot;external_mention_url&amp;quot;:{}},&amp;quot;isCut&amp;quot;:false}&quot;&gt;相关接口&lt;/span&gt;" style="text;html=1;strokeColor=#9673a6;fillColor=#e1d5e7;align=center;verticalAlign=middle;whiteSpace=wrap;rounded=0;" parent="1" vertex="1">
          <mxGeometry x="560" y="270" width="170" height="30" as="geometry" />
        </mxCell>
        <mxCell id="72opb8WJkL6b5-LoPTCA-11" value="宏" style="rounded=0;whiteSpace=wrap;html=1;fillColor=#f5f5f5;fontColor=#333333;strokeColor=#666666;" parent="1" vertex="1">
          <mxGeometry x="800" y="260" width="60" height="30" as="geometry" />
        </mxCell>
        <mxCell id="72opb8WJkL6b5-LoPTCA-12" value="category" style="rounded=0;whiteSpace=wrap;html=1;fillColor=#ffe6cc;strokeColor=#d79b00;" parent="1" vertex="1">
          <mxGeometry x="930" y="330" width="60" height="30" as="geometry" />
        </mxCell>
        <mxCell id="72opb8WJkL6b5-LoPTCA-15" value="使用拓展类" style="text;html=1;strokeColor=#9673a6;fillColor=#e1d5e7;align=center;verticalAlign=middle;whiteSpace=wrap;rounded=0;" parent="1" vertex="1">
          <mxGeometry x="580" y="360" width="100" height="30" as="geometry" />
        </mxCell>
        <mxCell id="72opb8WJkL6b5-LoPTCA-17" value="AWELanguages" style="rounded=0;whiteSpace=wrap;html=1;fillColor=#b1ddf0;strokeColor=#10739e;" parent="1" vertex="1">
          <mxGeometry x="540" y="50" width="200" height="110" as="geometry" />
        </mxCell>
        <mxCell id="72opb8WJkL6b5-LoPTCA-18" value="宏" style="rounded=0;whiteSpace=wrap;html=1;fillColor=#f5f5f5;strokeColor=#666666;fontColor=#333333;" parent="1" vertex="1">
          <mxGeometry x="570" y="120" width="70" height="30" as="geometry" />
        </mxCell>
        <mxCell id="72opb8WJkL6b5-LoPTCA-19" value="" style="endArrow=classic;html=1;strokeColor=#000000;curved=1;entryX=0;entryY=0.75;entryDx=0;entryDy=0;exitX=0.5;exitY=0;exitDx=0;exitDy=0;" parent="1" source="72opb8WJkL6b5-LoPTCA-4" target="72opb8WJkL6b5-LoPTCA-18" edge="1">
          <mxGeometry width="50" height="50" relative="1" as="geometry">
            <mxPoint x="400" y="230" as="sourcePoint" />
            <mxPoint x="450" y="180" as="targetPoint" />
          </mxGeometry>
        </mxCell>
        <mxCell id="72opb8WJkL6b5-LoPTCA-20" value="依赖宏" style="text;html=1;strokeColor=#9673a6;fillColor=#e1d5e7;align=center;verticalAlign=middle;whiteSpace=wrap;rounded=0;" parent="1" vertex="1">
          <mxGeometry x="400" y="160" width="80" height="20" as="geometry" />
        </mxCell>
        <mxCell id="72opb8WJkL6b5-LoPTCA-21" value="" style="endArrow=classic;html=1;strokeColor=#000000;curved=1;entryX=0.5;entryY=0;entryDx=0;entryDy=0;exitX=0.5;exitY=1;exitDx=0;exitDy=0;" parent="1" source="72opb8WJkL6b5-LoPTCA-18" target="72opb8WJkL6b5-LoPTCA-11" edge="1">
          <mxGeometry width="50" height="50" relative="1" as="geometry">
            <mxPoint x="650" y="240" as="sourcePoint" />
            <mxPoint x="700" y="190" as="targetPoint" />
          </mxGeometry>
        </mxCell>
        <mxCell id="72opb8WJkL6b5-LoPTCA-22" value="定义宏，依赖宏" style="text;html=1;strokeColor=#9673a6;fillColor=#e1d5e7;align=center;verticalAlign=middle;whiteSpace=wrap;rounded=0;" parent="1" vertex="1">
          <mxGeometry x="720" y="180" width="90" height="20" as="geometry" />
        </mxCell>
        <mxCell id="72opb8WJkL6b5-LoPTCA-23" value="" style="endArrow=classic;html=1;strokeColor=#000000;curved=1;exitX=1;exitY=0.5;exitDx=0;exitDy=0;entryX=0.808;entryY=0.643;entryDx=0;entryDy=0;entryPerimeter=0;" parent="1" source="72opb8WJkL6b5-LoPTCA-17" target="72opb8WJkL6b5-LoPTCA-5" edge="1">
          <mxGeometry width="50" height="50" relative="1" as="geometry">
            <mxPoint x="750" y="130" as="sourcePoint" />
            <mxPoint x="800" y="80" as="targetPoint" />
          </mxGeometry>
        </mxCell>
        <mxCell id="72opb8WJkL6b5-LoPTCA-24" value="使用拓展类" style="text;html=1;strokeColor=#9673a6;fillColor=#e1d5e7;align=center;verticalAlign=middle;whiteSpace=wrap;rounded=0;" parent="1" vertex="1">
          <mxGeometry x="850" y="180" width="90" height="20" as="geometry" />
        </mxCell>
        <mxCell id="72opb8WJkL6b5-LoPTCA-26" value="" style="endArrow=classic;html=1;rounded=0;strokeColor=#000000;exitX=1;exitY=0.75;exitDx=0;exitDy=0;entryX=0;entryY=0.5;entryDx=0;entryDy=0;" parent="1" source="72opb8WJkL6b5-LoPTCA-4" target="72opb8WJkL6b5-LoPTCA-12" edge="1">
          <mxGeometry width="50" height="50" relative="1" as="geometry">
            <mxPoint x="520" y="390" as="sourcePoint" />
            <mxPoint x="570" y="340" as="targetPoint" />
          </mxGeometry>
        </mxCell>
        <mxCell id="72opb8WJkL6b5-LoPTCA-27" value="SwiftBasicAdapter" style="rounded=0;whiteSpace=wrap;html=1;fillColor=#fff2cc;strokeColor=#d6b656;" parent="1" vertex="1">
          <mxGeometry x="540" y="510" width="200" height="110" as="geometry" />
        </mxCell>
        <mxCell id="72opb8WJkL6b5-LoPTCA-28" value="" style="endArrow=classic;html=1;rounded=0;strokeColor=#000000;exitX=0.5;exitY=0;exitDx=0;exitDy=0;" parent="1" source="72opb8WJkL6b5-LoPTCA-27" edge="1">
          <mxGeometry width="50" height="50" relative="1" as="geometry">
            <mxPoint x="880" y="430" as="sourcePoint" />
            <mxPoint x="930" y="380" as="targetPoint" />
          </mxGeometry>
        </mxCell>
        <mxCell id="72opb8WJkL6b5-LoPTCA-29" value="依赖相关接口" style="text;html=1;strokeColor=#9673a6;fillColor=#e1d5e7;align=center;verticalAlign=middle;whiteSpace=wrap;rounded=0;" parent="1" vertex="1">
          <mxGeometry x="800" y="440" width="100" height="30" as="geometry" />
        </mxCell>
      </root>
    </mxGraphModel>
  </diagram>
  <diagram id="x8UoFUyo8YgOdecIvEsp" name="Page-2">
    <mxGraphModel dx="1186" dy="764" grid="1" gridSize="10" guides="1" tooltips="1" connect="1" arrows="1" fold="1" page="1" pageScale="1" pageWidth="3300" pageHeight="4681" math="0" shadow="0">
      <root>
        <mxCell id="0" />
        <mxCell id="1" parent="0" />
        <mxCell id="f63Kz1b9z3R2gilJ4Oy0-1" value="" style="rounded=0;whiteSpace=wrap;html=1;fillColor=#d5e8d4;strokeColor=#82b366;" vertex="1" parent="1">
          <mxGeometry x="290" y="250" width="650" height="340" as="geometry" />
        </mxCell>
        <mxCell id="f63Kz1b9z3R2gilJ4Oy0-5" style="edgeStyle=orthogonalEdgeStyle;rounded=0;orthogonalLoop=1;jettySize=auto;html=1;exitX=0.5;exitY=0;exitDx=0;exitDy=0;entryX=0;entryY=1;entryDx=0;entryDy=0;" edge="1" parent="1" source="f63Kz1b9z3R2gilJ4Oy0-2" target="f63Kz1b9z3R2gilJ4Oy0-4">
          <mxGeometry relative="1" as="geometry" />
        </mxCell>
        <mxCell id="f63Kz1b9z3R2gilJ4Oy0-2" value="AWEBizLocalizationsLanguages" style="rounded=0;whiteSpace=wrap;html=1;fillColor=#fff2cc;strokeColor=#d6b656;" vertex="1" parent="1">
          <mxGeometry x="330" y="430" width="180" height="60" as="geometry" />
        </mxCell>
        <mxCell id="f63Kz1b9z3R2gilJ4Oy0-7" style="edgeStyle=orthogonalEdgeStyle;rounded=0;orthogonalLoop=1;jettySize=auto;html=1;exitX=0.5;exitY=0;exitDx=0;exitDy=0;entryX=1;entryY=1;entryDx=0;entryDy=0;" edge="1" parent="1" source="f63Kz1b9z3R2gilJ4Oy0-3" target="f63Kz1b9z3R2gilJ4Oy0-4">
          <mxGeometry relative="1" as="geometry" />
        </mxCell>
        <mxCell id="f63Kz1b9z3R2gilJ4Oy0-3" value="AWEBizLocalizationsSwift" style="rounded=0;whiteSpace=wrap;html=1;fillColor=#fff2cc;strokeColor=#d6b656;" vertex="1" parent="1">
          <mxGeometry x="650" y="430" width="160" height="60" as="geometry" />
        </mxCell>
        <mxCell id="f63Kz1b9z3R2gilJ4Oy0-4" value="AWEBizLocalizations" style="rounded=0;whiteSpace=wrap;html=1;fillColor=#fff2cc;strokeColor=#d6b656;" vertex="1" parent="1">
          <mxGeometry x="510" y="300" width="140" height="60" as="geometry" />
        </mxCell>
        <mxCell id="f63Kz1b9z3R2gilJ4Oy0-8" value="UIKit" style="rounded=0;whiteSpace=wrap;html=1;fillColor=#dae8fc;strokeColor=#6c8ebf;" vertex="1" parent="1">
          <mxGeometry x="520" y="70" width="120" height="60" as="geometry" />
        </mxCell>
      </root>
    </mxGraphModel>
  </diagram>
</mxfile>
